name C:\Users\u0093377\Documents\Projects\3-Antoinne\AdDB\\GRF\AdDB_Squat_2_GRF.mot
datacolumns 19
datarows 30
range 3.45100000 3.48000000
endheader

                time	     ground_force_vx	     ground_force_vy	     ground_force_vz	     ground_force_px	     ground_force_py	     ground_force_pz	   1_ground_force_vx	   1_ground_force_vy	   1_ground_force_vz	   1_ground_force_px	   1_ground_force_py	   1_ground_force_pz	     ground_torque_x	     ground_torque_y	     ground_torque_z	   1_ground_torque_x	   1_ground_torque_y	   1_ground_torque_z	
          3.45100000	        -31.43424198	        340.90507488	        -43.03286212	         -0.22084771	          0.00000000	          0.22264349	         34.07499295	        263.45790409	         35.81588036	         -0.53868394	          0.00000000	         -0.24219187	          0.00000000	          0.17812583	          0.00000000	          0.00000000	         -1.55368201	          0.00000000	
          3.45200000	        -31.49205670	        341.05671806	        -43.06877944	         -0.22081263	          0.00000000	          0.22259407	         34.07197656	        263.49570755	         35.85036863	         -0.53864174	          0.00000000	         -0.24219376	          0.00000000	          0.18029936	          0.00000000	          0.00000000	         -1.55253732	          0.00000000	
          3.45300000	        -31.55037720	        341.21205823	        -43.10604515	         -0.22077763	          0.00000000	          0.22254453	         34.06798022	        263.53397547	         35.88491894	         -0.53859967	          0.00000000	         -0.24219570	          0.00000000	          0.18246816	          0.00000000	          0.00000000	         -1.55142670	          0.00000000	
          3.45400000	        -31.60913452	        341.37098503	        -43.14466245	         -0.22074273	          0.00000000	          0.22249487	         34.06296265	        263.57266495	         35.91952749	         -0.53855773	          0.00000000	         -0.24219772	          0.00000000	          0.18463391	          0.00000000	          0.00000000	         -1.55035249	          0.00000000	
          3.45500000	        -31.66825660	        341.53338021	        -43.18463109	         -0.22070796	          0.00000000	          0.22244511	         34.05687724	        263.61172219	         35.95419138	         -0.53851596	          0.00000000	         -0.24219982	          0.00000000	          0.18679829	          0.00000000	          0.00000000	         -1.54931679	          0.00000000	
          3.45600000	        -31.72766833	        341.69911675	        -43.22594629	         -0.22067334	          0.00000000	          0.22239525	         34.04967478	        263.65108188	         35.98890877	         -0.53847437	          0.00000000	         -0.24220199	          0.00000000	          0.18896308	          0.00000000	          0.00000000	         -1.54832142	          0.00000000	
          3.45700000	        -31.78729151	        341.86805594	        -43.26859819	         -0.22063888	          0.00000000	          0.22234531	         34.04130577	        263.69066657	         36.02367856	         -0.53843298	          0.00000000	         -0.24220424	          0.00000000	          0.19113011	          0.00000000	          0.00000000	         -1.54736807	          0.00000000	
          3.45800000	        -31.84704471	        342.04004678	        -43.31257193	         -0.22060461	          0.00000000	          0.22229527	         34.03172100	        263.73038663	         36.05850009	         -0.53839182	          0.00000000	         -0.24220656	          0.00000000	          0.19330130	          0.00000000	          0.00000000	         -1.54645843	          0.00000000	
          3.45900000	        -31.90684357	        342.21492783	        -43.35784786	         -0.22057054	          0.00000000	          0.22224516	         34.02087104	        263.77014204	         36.09337255	         -0.53835089	          0.00000000	         -0.24220897	          0.00000000	          0.19547856	          0.00000000	          0.00000000	         -1.54559409	          0.00000000	
          3.46000000	        -31.96660116	        342.39252729	        -43.40440152	         -0.22053671	          0.00000000	          0.22219496	         34.00870587	        263.80982505	         36.12829322	         -0.53831024	          0.00000000	         -0.24221146	          0.00000000	          0.19766380	          0.00000000	          0.00000000	         -1.54477667	          0.00000000	
          3.46100000	        -32.02622807	        342.57266056	        -43.45220346	         -0.22050314	          0.00000000	          0.22214470	         33.99517541	        263.84932098	         36.16325633	         -0.53826989	          0.00000000	         -0.24221404	          0.00000000	          0.19985884	          0.00000000	          0.00000000	         -1.54400785	          0.00000000	
          3.46200000	        -32.08563222	        342.75512900	        -43.50121943	         -0.22046984	          0.00000000	          0.22209436	         33.98023096	        263.88850896	         36.19825548	         -0.53822989	          0.00000000	         -0.24221671	          0.00000000	          0.20206549	          0.00000000	          0.00000000	         -1.54328929	          0.00000000	
          3.46300000	        -32.14471864	        342.93972175	        -43.55141098	         -0.22043684	          0.00000000	          0.22204395	         33.96382638	        263.92726494	         36.23328742	         -0.53819026	          0.00000000	         -0.24221948	          0.00000000	          0.20428560	          0.00000000	          0.00000000	         -1.54262256	          0.00000000	
          3.46400000	        -32.20338993	        343.12621897	        -43.60273646	         -0.22040415	          0.00000000	          0.22199348	         33.94591776	        263.96546563	         36.26835439	         -0.53815106	          0.00000000	         -0.24222237	          0.00000000	          0.20652109	          0.00000000	          0.00000000	         -1.54200934	          0.00000000	
          3.46500000	        -32.26154691	        343.31439355	        -43.65515185	         -0.22037181	          0.00000000	          0.22194294	         33.92646225	        264.00299149	         36.30346497	         -0.53811232	          0.00000000	         -0.24222540	          0.00000000	          0.20877396	          0.00000000	          0.00000000	         -1.54145151	          0.00000000	
          3.46600000	        -32.31908911	        343.50401094	        -43.70861081	         -0.22033983	          0.00000000	          0.22189234	         33.90541788	        264.03972933	         36.33863369	         -0.53807406	          0.00000000	         -0.24222858	          0.00000000	          0.21104638	          0.00000000	          0.00000000	         -1.54095092	          0.00000000	
          3.46700000	        -32.37591515	        343.69482816	        -43.76306418	         -0.22030823	          0.00000000	          0.22184167	         33.88274448	        264.07557456	         36.37387924	         -0.53803633	          0.00000000	         -0.24223192	          0.00000000	          0.21334061	          0.00000000	          0.00000000	         -1.54050894	          0.00000000	
          3.46800000	        -32.43192344	        343.88659361	        -43.81845935	         -0.22027704	          0.00000000	          0.22179094	         33.85840445	        264.11043182	         36.40922308	         -0.53799914	          0.00000000	         -0.24223544	          0.00000000	          0.21565898	          0.00000000	          0.00000000	         -1.54012654	          0.00000000	
          3.46900000	        -32.48701258	        344.07904806	        -43.87474002	         -0.22024628	          0.00000000	          0.22174015	         33.83236283	        264.14421444	         36.44468878	         -0.53796254	          0.00000000	         -0.24223915	          0.00000000	          0.21800385	          0.00000000	          0.00000000	         -1.53980457	          0.00000000	
          3.47000000	        -32.54108089	        344.27192555	        -43.93184622	         -0.22021597	          0.00000000	          0.22168929	         33.80458701	        264.17684558	         36.48030168	         -0.53792656	          0.00000000	         -0.24224307	          0.00000000	          0.22037757	          0.00000000	          0.00000000	         -1.53954389	          0.00000000	
          3.47100000	        -32.59402604	        344.46495328	        -43.98971440	         -0.22018612	          0.00000000	          0.22163837	         33.77504589	        264.20826107	         36.51608880	         -0.53789124	          0.00000000	         -0.24224722	          0.00000000	          0.22278266	          0.00000000	          0.00000000	         -1.53934545	          0.00000000	
          3.47200000	        -32.64574542	        344.65785144	        -44.04827813	         -0.22015675	          0.00000000	          0.22158739	         33.74370956	        264.23841044	         36.55207775	         -0.53785661	          0.00000000	         -0.24225162	          0.00000000	          0.22522182	          0.00000000	          0.00000000	         -1.53921019	          0.00000000	
          3.47300000	        -32.69613678	        344.85033420	        -44.10746865	         -0.22012788	          0.00000000	          0.22153634	         33.71055053	        264.26725487	         36.58829539	         -0.53782270	          0.00000000	         -0.24225629	          0.00000000	          0.22769794	          0.00000000	          0.00000000	         -1.53913892	          0.00000000	
          3.47400000	        -32.74509872	        345.04211035	        -44.16721508	         -0.22009952	          0.00000000	          0.22148521	         33.67554535	        264.29476420	         36.62476768	         -0.53778957	          0.00000000	         -0.24226125	          0.00000000	          0.23021394	          0.00000000	          0.00000000	         -1.53913216	          0.00000000	
          3.47500000	        -32.79253109	        345.23288327	        -44.22744439	         -0.22007169	          0.00000000	          0.22143402	         33.63867507	        264.32091717	         36.66152049	         -0.53775723	          0.00000000	         -0.24226655	          0.00000000	          0.23277265	          0.00000000	          0.00000000	         -1.53919039	          0.00000000	
          3.47600000	        -32.83833538	        345.42235153	        -44.28808179	         -0.22004440	          0.00000000	          0.22138275	         33.59992500	        264.34570384	         36.69858070	         -0.53772572	          0.00000000	         -0.24227219	          0.00000000	          0.23537690	          0.00000000	          0.00000000	         -1.53931438	          0.00000000	
          3.47700000	        -32.88241494	        345.61021028	        -44.34905089	         -0.22001766	          0.00000000	          0.22133140	         33.55928490	        264.36912533	         36.73597766	         -0.53769507	          0.00000000	         -0.24227822	          0.00000000	          0.23802948	          0.00000000	          0.00000000	         -1.53950526	          0.00000000	
          3.47800000	        -32.92467524	        345.79615274	        -44.41027362	         -0.21999149	          0.00000000	          0.22127996	         33.51674943	        264.39119100	         36.77374442	         -0.53766532	          0.00000000	         -0.24228466	          0.00000000	          0.24073317	          0.00000000	          0.00000000	         -1.53976419	          0.00000000	
          3.47900000	        -32.96502422	        345.97987206	        -44.47167065	         -0.21996591	          0.00000000	          0.22122843	         33.47231987	        264.41191677	         36.81191779	         -0.53763649	          0.00000000	         -0.24229153	          0.00000000	          0.24349074	          0.00000000	          0.00000000	         -1.54009211	          0.00000000	
          3.48000000	        -33.00337270	        346.16106344	        -44.53316182	         -0.21994092	          0.00000000	          0.22117682	         33.42600848	        264.43132637	         36.85053760	         -0.53760862	          0.00000000	         -0.24229884	          0.00000000	          0.24630494	          0.00000000	          0.00000000	         -1.54048974	          0.00000000	
